# xmcd
#
# Track frame offsets:
#	150
#	11662
#	25316
#	34597
#	43322
#	56758
#	66979
#	75955
#	88466
#	98283
#	107325
#	127394
#	137748
#	150586
#	163808
#	175690
#	186688
#	199173
#	210977
#	221809
#	232751
#
# Disc length: 3265 seconds
#
# Revision: 0
# Processed by: cddbd v1.5.2PL0 Copyright (c) Steve Scherf et al.
# Submitted via: EZCDAudioConverter 1.2.5.1
#
DISCID=250cbf15
DTITLE=The Isley Brothers - Mary Wells - Shout! - Bye, bye Baby
DYEAR=2013
DGENRE=Soul
TTITLE0=The Isley Brothers - When the saints go marching in
TTITLE1=The Isley Brothers - St. Louis Blues
TTITLE2=The Isley Brothers - Yes, indeed
TTITLE3=The Isley Brothers - How deep is the Golden Ocean
TTITLE4=The Isley Brothers - Ring-a-ling-a-ling (Let the wedding bells ring)
TTITLE5=The Isley Brothers - Rock around the clock
TTITLE6=The Isley Brothers - He's got the whole world in his hands
TTITLE7=The Isley Brothers - That lucky old sun
TTITLE8=The Isley Brothers - Respectable
TTITLE9=The Isley Brothers - Without a song
TTITLE10=The Isley Brothers - Shout
TTITLE11=Mary Wells - Come to me
TTITLE12=Mary Wells - I don't want to take a chance
TTITLE13=Mary Wells - Bye, bye baby
TTITLE14=Mary Wells - Shop around
TTITLE15=Mary Wells - I love the way you love
TTITLE16=Mary Wells - I'm gonna stay
TTITLE17=Mary Wells - Let your conscience be your guide
TTITLE18=Mary Wells - Bad boy
TTITLE19=Mary Wells - I'm so sorry
TTITLE20=Mary Wells - Please forgive me
EXTD=
EXTT0=
EXTT1=
EXTT2=
EXTT3=
EXTT4=
EXTT5=
EXTT6=
EXTT7=
EXTT8=
EXTT9=
EXTT10=
EXTT11=
EXTT12=
EXTT13=
EXTT14=
EXTT15=
EXTT16=
EXTT17=
EXTT18=
EXTT19=
EXTT20=
PLAYORDER=
